<mxfile host="app.diagrams.net" agent="Mozilla/5.0 (Windows NT 10.0; Win64; x64) AppleWebKit/537.36 (KHTML, like Gecko) Chrome/135.0.0.0 Safari/537.36" version="26.2.9">
  <diagram name="Page-1" id="-UtLJCirOzrIPfLIvJXa">
    <mxGraphModel dx="949" dy="511" grid="1" gridSize="10" guides="1" tooltips="1" connect="1" arrows="1" fold="1" page="1" pageScale="1" pageWidth="850" pageHeight="1100" math="0" shadow="0">
      <root>
        <mxCell id="0" />
        <mxCell id="1" parent="0" />
        <mxCell id="ypENjs25oA44qtjYn9gZ-1" value="&lt;div style=&quot;color: rgb(204, 204, 204); background-color: rgb(31, 31, 31); font-family: Consolas, &amp;quot;Courier New&amp;quot;, monospace; font-weight: normal; line-height: 19px; white-space: pre;&quot;&gt;&lt;div&gt;&lt;span style=&quot;color: #6a9955;&quot;&gt;// Multiplication table&lt;/span&gt;&lt;/div&gt;&lt;div&gt;&lt;span style=&quot;color: #6a9955;&quot;&gt;// Step 1: Start&lt;/span&gt;&lt;/div&gt;&lt;div&gt;&lt;span style=&quot;color: #6a9955;&quot;&gt;// Step 2: Initialize variables&lt;/span&gt;&lt;/div&gt;&lt;div&gt;&lt;span style=&quot;color: #6a9955;&quot;&gt;// Step 3: Repeat step 4 to 5 if the condition is true (i&amp;lt;=10)&lt;/span&gt;&lt;/div&gt;&lt;div&gt;&lt;span style=&quot;color: #6a9955;&quot;&gt;// Step 4: Print n x i = n*i&lt;/span&gt;&lt;/div&gt;&lt;div&gt;&lt;span style=&quot;color: #6a9955;&quot;&gt;// Step 5: Go to step 3&lt;/span&gt;&lt;/div&gt;&lt;div&gt;&lt;span style=&quot;color: #6a9955;&quot;&gt;// Step 6: End&lt;/span&gt;&lt;/div&gt;&lt;/div&gt;" style="text;whiteSpace=wrap;html=1;fontSize=14;" vertex="1" parent="1">
          <mxGeometry x="40" y="30" width="510" height="160" as="geometry" />
        </mxCell>
        <mxCell id="ypENjs25oA44qtjYn9gZ-5" value="" style="edgeStyle=orthogonalEdgeStyle;rounded=0;orthogonalLoop=1;jettySize=auto;html=1;fontSize=14;" edge="1" parent="1" source="ypENjs25oA44qtjYn9gZ-2">
          <mxGeometry relative="1" as="geometry">
            <mxPoint x="410" y="310" as="targetPoint" />
          </mxGeometry>
        </mxCell>
        <mxCell id="ypENjs25oA44qtjYn9gZ-2" value="Start" style="strokeWidth=2;html=1;shape=mxgraph.flowchart.start_1;whiteSpace=wrap;fontSize=14;" vertex="1" parent="1">
          <mxGeometry x="360" y="220" width="100" height="60" as="geometry" />
        </mxCell>
        <mxCell id="ypENjs25oA44qtjYn9gZ-3" value="End" style="strokeWidth=2;html=1;shape=mxgraph.flowchart.start_1;whiteSpace=wrap;fontSize=14;" vertex="1" parent="1">
          <mxGeometry x="360" y="990" width="100" height="60" as="geometry" />
        </mxCell>
        <mxCell id="ypENjs25oA44qtjYn9gZ-9" value="" style="edgeStyle=orthogonalEdgeStyle;rounded=0;orthogonalLoop=1;jettySize=auto;html=1;fontSize=14;" edge="1" parent="1" source="ypENjs25oA44qtjYn9gZ-6" target="ypENjs25oA44qtjYn9gZ-8">
          <mxGeometry relative="1" as="geometry" />
        </mxCell>
        <mxCell id="ypENjs25oA44qtjYn9gZ-6" value="Enter n" style="shape=parallelogram;perimeter=parallelogramPerimeter;whiteSpace=wrap;html=1;fixedSize=1;strokeWidth=2;fontSize=14;" vertex="1" parent="1">
          <mxGeometry x="350" y="310" width="120" height="60" as="geometry" />
        </mxCell>
        <mxCell id="ypENjs25oA44qtjYn9gZ-11" value="" style="edgeStyle=orthogonalEdgeStyle;rounded=0;orthogonalLoop=1;jettySize=auto;html=1;fontSize=14;" edge="1" parent="1" source="ypENjs25oA44qtjYn9gZ-8" target="ypENjs25oA44qtjYn9gZ-10">
          <mxGeometry relative="1" as="geometry" />
        </mxCell>
        <mxCell id="ypENjs25oA44qtjYn9gZ-8" value="i = 1" style="whiteSpace=wrap;html=1;strokeWidth=2;fontSize=14;" vertex="1" parent="1">
          <mxGeometry x="350" y="410" width="120" height="60" as="geometry" />
        </mxCell>
        <mxCell id="ypENjs25oA44qtjYn9gZ-13" value="" style="edgeStyle=orthogonalEdgeStyle;rounded=0;orthogonalLoop=1;jettySize=auto;html=1;fontSize=14;" edge="1" parent="1" source="ypENjs25oA44qtjYn9gZ-10" target="ypENjs25oA44qtjYn9gZ-12">
          <mxGeometry relative="1" as="geometry" />
        </mxCell>
        <mxCell id="ypENjs25oA44qtjYn9gZ-19" value="True" style="edgeLabel;html=1;align=center;verticalAlign=middle;resizable=0;points=[];fontSize=14;" vertex="1" connectable="0" parent="ypENjs25oA44qtjYn9gZ-13">
          <mxGeometry x="-0.2701" relative="1" as="geometry">
            <mxPoint as="offset" />
          </mxGeometry>
        </mxCell>
        <mxCell id="ypENjs25oA44qtjYn9gZ-17" value="" style="edgeStyle=orthogonalEdgeStyle;rounded=0;orthogonalLoop=1;jettySize=auto;html=1;fontSize=14;" edge="1" parent="1" source="ypENjs25oA44qtjYn9gZ-10" target="ypENjs25oA44qtjYn9gZ-16">
          <mxGeometry relative="1" as="geometry">
            <Array as="points">
              <mxPoint x="590" y="570" />
              <mxPoint x="590" y="900" />
            </Array>
          </mxGeometry>
        </mxCell>
        <mxCell id="ypENjs25oA44qtjYn9gZ-20" value="False" style="edgeLabel;html=1;align=center;verticalAlign=middle;resizable=0;points=[];fontSize=14;" vertex="1" connectable="0" parent="ypENjs25oA44qtjYn9gZ-17">
          <mxGeometry x="-0.8127" relative="1" as="geometry">
            <mxPoint as="offset" />
          </mxGeometry>
        </mxCell>
        <mxCell id="ypENjs25oA44qtjYn9gZ-10" value="i &amp;lt;= 10" style="rhombus;whiteSpace=wrap;html=1;strokeWidth=2;fontSize=14;" vertex="1" parent="1">
          <mxGeometry x="350" y="530" width="120" height="80" as="geometry" />
        </mxCell>
        <mxCell id="ypENjs25oA44qtjYn9gZ-15" value="" style="edgeStyle=orthogonalEdgeStyle;rounded=0;orthogonalLoop=1;jettySize=auto;html=1;entryX=0;entryY=0.5;entryDx=0;entryDy=0;fontSize=14;" edge="1" parent="1" target="ypENjs25oA44qtjYn9gZ-10">
          <mxGeometry relative="1" as="geometry">
            <mxPoint x="350" y="819.9999999999998" as="sourcePoint" />
            <mxPoint x="380" y="680" as="targetPoint" />
            <Array as="points">
              <mxPoint x="160" y="820" />
              <mxPoint x="160" y="570" />
            </Array>
          </mxGeometry>
        </mxCell>
        <mxCell id="ypENjs25oA44qtjYn9gZ-24" value="" style="edgeStyle=orthogonalEdgeStyle;rounded=0;orthogonalLoop=1;jettySize=auto;html=1;fontSize=14;" edge="1" parent="1" source="ypENjs25oA44qtjYn9gZ-12" target="ypENjs25oA44qtjYn9gZ-23">
          <mxGeometry relative="1" as="geometry" />
        </mxCell>
        <mxCell id="ypENjs25oA44qtjYn9gZ-12" value="Print n x i = n * i" style="shape=parallelogram;perimeter=parallelogramPerimeter;whiteSpace=wrap;html=1;fixedSize=1;strokeWidth=2;fontSize=14;" vertex="1" parent="1">
          <mxGeometry x="310" y="680" width="200" height="60" as="geometry" />
        </mxCell>
        <mxCell id="ypENjs25oA44qtjYn9gZ-18" value="" style="edgeStyle=orthogonalEdgeStyle;rounded=0;orthogonalLoop=1;jettySize=auto;html=1;fontSize=14;" edge="1" parent="1" source="ypENjs25oA44qtjYn9gZ-16" target="ypENjs25oA44qtjYn9gZ-3">
          <mxGeometry relative="1" as="geometry" />
        </mxCell>
        <mxCell id="ypENjs25oA44qtjYn9gZ-16" value="" style="ellipse;whiteSpace=wrap;html=1;strokeWidth=2;fontSize=14;" vertex="1" parent="1">
          <mxGeometry x="370" y="870" width="80" height="80" as="geometry" />
        </mxCell>
        <mxCell id="ypENjs25oA44qtjYn9gZ-23" value="i++" style="whiteSpace=wrap;html=1;fontSize=14;strokeWidth=2;" vertex="1" parent="1">
          <mxGeometry x="350" y="780" width="120" height="60" as="geometry" />
        </mxCell>
      </root>
    </mxGraphModel>
  </diagram>
</mxfile>
